<svg width="536" height="430" viewBox="0 0 536 430" fill="none" xmlns="http://www.w3.org/2000/svg">
<path d="M96.3748 229.696H84.7087V427.975H96.3748V229.696Z" fill="#FFBE21"/>
<path d="M96.3795 232.422H84.7087" stroke="#A15842" stroke-width="4" stroke-miterlimit="10"/>
<path d="M31.7701 388.189C32.9518 384.8 35.1587 381.862 38.0848 379.784C41.011 377.705 44.5113 376.588 48.1006 376.588C51.6898 376.588 55.1902 377.705 58.1163 379.784C61.0424 381.862 63.2493 384.8 64.4311 388.189C65.5589 384.953 67.6225 382.126 70.36 380.065C73.0975 378.004 76.3855 376.803 79.8068 376.613C78.2793 373.891 76.4605 371.343 74.3823 369.013L68.1028 361.95C66.1506 359.756 64.9211 357.014 64.5812 354.096C64.2412 351.179 64.8074 348.228 66.2028 345.643L71.5323 335.74C70.0361 337.245 61.3863 345.344 48.2573 345.344C35.1283 345.344 26.4786 337.245 24.9823 335.74H24.9586L30.2928 345.643C31.682 348.233 32.2395 351.188 31.8893 354.106C31.5392 357.024 30.2984 359.763 28.3358 361.95L22.0611 368.985C19.9791 371.314 18.1555 373.862 16.6223 376.585C20.0069 376.82 23.2475 378.046 25.9408 380.11C28.6341 382.173 30.6613 384.982 31.7701 388.189Z" fill="#4756DF"/>
<path d="M80.7614 398.197C77.1711 398.198 73.67 399.316 70.7438 401.396C67.8176 403.476 65.6113 406.416 64.4309 409.806C63.2514 406.415 61.0454 403.475 58.119 401.394C55.1926 399.314 51.691 398.196 48.1004 398.196C44.5098 398.196 41.0083 399.314 38.0819 401.394C35.1555 403.475 32.9494 406.415 31.7699 409.806C30.3416 405.708 27.4258 402.297 23.6005 400.248C19.7752 398.199 15.3196 397.662 11.1169 398.744C11.3582 409.705 15.7757 420.161 23.4669 427.975H72.9572C80.6328 420.178 85.0491 409.748 85.3072 398.81C83.8261 398.404 82.2972 398.198 80.7614 398.197Z" fill="#4756DF"/>
<path d="M48.2193 345.363C61.3483 345.363 69.9981 337.264 71.4943 335.758H24.9443C26.4406 337.25 35.0903 345.363 48.2193 345.363Z" fill="#30242A"/>
<path d="M31.7702 409.806C32.9497 406.415 35.1557 403.475 38.0821 401.394C41.0085 399.314 44.5101 398.196 48.1007 398.196C51.6913 398.196 55.1928 399.314 58.1192 401.394C61.0456 403.475 63.2517 406.415 64.4312 409.806C65.8713 405.665 68.831 402.225 72.7113 400.184C76.5915 398.142 81.1025 397.651 85.3312 398.81C85.5263 391.049 83.6209 383.38 79.8164 376.613C76.3951 376.803 73.1071 378.004 70.3696 380.065C67.6321 382.126 65.5685 384.953 64.4407 388.189C63.2589 384.8 61.052 381.862 58.1259 379.784C55.1998 377.705 51.6994 376.588 48.1102 376.588C44.5209 376.588 41.0206 377.705 38.0944 379.784C35.1683 381.862 32.9614 384.8 31.7797 388.189C30.6641 384.99 28.6339 382.19 25.9412 380.135C23.2484 378.079 20.0115 376.86 16.6319 376.628C12.8444 383.371 10.9428 391.011 11.1267 398.744C15.3293 397.662 19.7849 398.199 23.6102 400.248C27.4356 402.297 30.3514 405.708 31.7797 409.806H31.7702Z" fill="#3EC1F3"/>
<path d="M51.6677 344.004C52.6177 338.19 56.9355 315.144 67.794 302.618" stroke="#30242A" stroke-width="4" stroke-miterlimit="10" stroke-linecap="round"/>
<path d="M46.6564 344.171C46.5852 337.568 45.906 305.149 39.4602 285.807" stroke="#30242A" stroke-width="4" stroke-miterlimit="10" stroke-linecap="round"/>
<path d="M75.2259 321.487C84.7466 317.298 91.7006 312.165 90.7582 310.023C89.8157 307.882 81.3337 309.541 71.813 313.731C62.2923 317.92 55.3382 323.052 56.2807 325.194C57.2231 327.336 65.7052 325.676 75.2259 321.487Z" fill="#30242A"/>
<path d="M75.2202 262.556C78.643 257.928 80.1097 253.21 78.4963 252.016C76.8828 250.823 72.8002 253.606 69.3774 258.234C65.9546 262.861 64.4879 267.58 66.1013 268.773C67.7147 269.967 71.7974 267.183 75.2202 262.556Z" fill="#30242A"/>
<path d="M23.6736 324.776C36.0852 322.899 45.8781 319.601 45.5466 317.409C45.2151 315.217 34.8848 314.962 22.4732 316.839C10.0616 318.716 0.268718 322.015 0.600198 324.207C0.931678 326.398 11.262 326.654 23.6736 324.776Z" fill="#30242A"/>
<path d="M15.0025 292.4V292.434C16.8364 293.459 18.2196 295.134 18.8793 297.129C19.539 299.124 19.4274 301.294 18.5666 303.21C17.7057 305.127 16.1581 306.652 14.2287 307.484C12.2993 308.316 10.1283 308.395 8.14355 307.705V307.733C18.5461 312.407 28.5258 312.764 30.4258 308.531C32.3258 304.299 25.4098 297.074 15.0025 292.4Z" fill="#FF7235"/>
<path d="M45.7589 258.524C43.5454 257.949 40.6669 261.298 38.5627 266.48C36.0309 260.186 32.3592 255.973 29.8844 256.79C27.4097 257.607 26.9679 263.174 28.6827 269.738C23.9042 266.831 19.6007 265.853 18.1614 267.634C16.3279 269.904 19.8619 275.794 26.0559 280.796C27.8181 282.232 29.7142 283.495 31.7179 284.568C32.0595 283.211 32.7346 281.961 33.6819 280.932C34.6293 279.902 35.8188 279.125 37.1425 278.672C38.4662 278.219 39.8821 278.104 41.2616 278.337C42.6411 278.571 43.9405 279.145 45.0417 280.008C45.9701 278.01 46.7111 275.93 47.2552 273.795C49.2549 266.095 48.5852 259.255 45.7589 258.524Z" fill="#FF7235"/>
<path d="M94.0473 293.488C93.3633 291.303 88.998 290.638 83.488 291.588C87.4875 286.111 89.1215 280.768 87.1218 279.1C85.122 277.433 80.1583 280.003 75.4938 284.929C75.4368 279.333 73.988 275.163 71.7175 274.882C68.8248 274.526 65.6898 280.644 64.7208 288.539C64.4336 290.796 64.3636 293.075 64.5118 295.346C65.8444 294.916 67.2633 294.827 68.6393 295.085C70.0153 295.344 71.3048 295.943 72.3905 296.827C73.4761 297.711 74.3235 298.852 74.8556 300.148C75.3876 301.443 75.5874 302.85 75.4368 304.242C77.6244 303.965 79.782 303.488 81.8825 302.817C89.4683 300.456 94.9165 296.272 94.0473 293.488Z" fill="#FF7235"/>
<path d="M72.4537 296.875C71.3675 295.969 70.0697 295.352 68.6811 295.082C67.2926 294.812 65.8583 294.898 64.5117 295.331C64.7825 299.088 65.7325 301.981 67.1622 303.031C68.497 304.266 71.5845 304.679 75.4272 304.228C75.577 302.852 75.3839 301.461 74.865 300.178C74.3462 298.895 73.5178 297.76 72.4537 296.875Z" fill="#30242A"/>
<path d="M37.2278 278.645C35.8847 279.088 34.6753 279.863 33.7121 280.898C32.7488 281.934 32.0628 283.196 31.7178 284.568C35.0428 286.325 37.9973 287.038 39.6598 286.392C41.4125 285.917 43.3933 283.508 45.0415 280.008C43.9528 279.153 42.6695 278.582 41.3061 278.344C39.9426 278.106 38.5415 278.209 37.2278 278.645Z" fill="#30242A"/>
<path d="M15.9289 306.503C15.0357 306.005 14.3621 305.19 14.0415 304.219C13.7209 303.247 13.7768 302.191 14.198 301.259C14.6191 300.327 15.3749 299.588 16.3157 299.186C17.2564 298.785 18.3135 298.752 19.2776 299.093C19.1661 297.719 18.7177 296.393 17.9721 295.233C17.2265 294.074 16.2066 293.115 15.0026 292.443L8.12939 307.705C9.42847 308.159 10.8191 308.286 12.179 308.077C13.5389 307.867 14.8266 307.327 15.9289 306.503Z" fill="#F5EBDD"/>
<path d="M14.1807 301.264C13.7665 302.196 13.7161 303.249 14.0397 304.216C14.3632 305.183 15.0371 305.994 15.9287 306.489C17.0704 305.64 17.977 304.514 18.5629 303.218C19.1488 301.921 19.3947 300.497 19.2775 299.079C18.3089 298.734 17.2458 298.768 16.3009 299.173C15.3559 299.578 14.5987 300.325 14.1807 301.264Z" fill="#4856DF"/>
<path d="M328.089 308.93H207.282L209.325 300.827H262.354L282.579 221.73C285.335 210.956 291.598 201.406 300.382 194.585C309.166 187.765 319.97 184.063 331.091 184.062C358.304 184.062 378.216 209.712 371.466 236.075L358.969 284.948C357.215 291.806 353.228 297.886 347.637 302.228C342.046 306.571 335.169 308.929 328.089 308.93Z" fill="#FFB7D5"/>
<path d="M208.218 383.786V392.364H285.211V383.786H208.218Z" fill="#A15842"/>
<path d="M297.893 423.368L277.867 304.166H215.557L195.531 423.368C195.436 423.935 195.467 424.515 195.619 425.069C195.772 425.624 196.044 426.138 196.415 426.576C196.787 427.015 197.249 427.367 197.771 427.609C198.293 427.85 198.861 427.975 199.435 427.975C200.339 427.974 201.214 427.665 201.918 427.098C202.621 426.531 203.109 425.741 203.302 424.859L229.531 304.166H263.912L290.132 424.859C290.324 425.742 290.812 426.532 291.516 427.099C292.219 427.666 293.095 427.975 293.998 427.975C294.572 427.974 295.139 427.848 295.66 427.606C296.18 427.364 296.642 427.011 297.012 426.573C297.383 426.134 297.654 425.621 297.806 425.067C297.958 424.514 297.988 423.934 297.893 423.368Z" fill="#A15842"/>
<path d="M272.001 383.786V392.364H348.994V383.786H272.001Z" fill="#FFBE21"/>
<path d="M361.677 423.368L341.632 304.166H279.345L259.319 423.368C259.224 423.935 259.254 424.515 259.407 425.069C259.56 425.624 259.831 426.138 260.203 426.576C260.575 427.015 261.037 427.367 261.559 427.609C262.081 427.85 262.648 427.975 263.223 427.975C264.126 427.975 265.002 427.666 265.704 427.099C266.407 426.532 266.894 425.741 267.085 424.859L293.305 304.166H327.69L353.91 424.859C354.102 425.743 354.591 426.534 355.296 427.101C356 427.668 356.877 427.976 357.782 427.975C358.356 427.974 358.922 427.848 359.443 427.606C359.963 427.364 360.425 427.011 360.795 426.573C361.166 426.134 361.437 425.621 361.589 425.067C361.741 424.514 361.771 423.934 361.677 423.368Z" fill="#FFBE21"/>
<path d="M298.744 284.948L306.382 255.075H255.761C245.834 255.075 236.19 258.38 228.349 264.467C220.508 270.554 214.916 279.079 212.455 288.695L207.282 308.93H267.859C274.939 308.93 281.818 306.572 287.41 302.23C293.002 297.887 296.99 291.807 298.744 284.948Z" fill="#FFB7D5"/>
<path d="M210.574 300.034H274.842" stroke="#A15842" stroke-width="4" stroke-linecap="round" stroke-linejoin="round"/>
<path d="M262.582 299.735L273.844 255.702" stroke="#A15842" stroke-width="4" stroke-linecap="round" stroke-linejoin="round"/>
<path d="M365.857 254.054H335.457" stroke="#A15842" stroke-width="4" stroke-linecap="round" stroke-linejoin="round"/>
<path d="M371.556 232.679H332.606" stroke="#A15842" stroke-width="4" stroke-linecap="round" stroke-linejoin="round"/>
<path d="M229.679 223.027C229.679 223.027 191.57 233.406 175.382 241.504C148.691 254.847 148.781 263.653 132.508 312.954C117.484 358.516 115.831 380.599 95.1065 381.473C79.2842 382.138 74.0972 387.315 71.5322 394.412L134.142 424.118C134.86 424.458 135.68 424.51 136.435 424.265C137.19 424.019 137.823 423.494 138.203 422.798C138.591 422.085 138.685 421.25 138.466 420.469C138.247 419.688 137.732 419.024 137.03 418.618L135.714 417.858C141.533 410.809 152.757 395.789 163.948 372.975L171.073 376.3C171.073 376.3 182.582 361.342 184.407 344.375C186.782 322.463 185.356 307.696 195.365 299.122L312.072 223.008L229.679 223.027Z" fill="#FF7235"/>
<path d="M88.9553 384.992C90.1951 382.413 97.0826 366.7 101.044 368.6C106.198 371.07 92.8218 386.845 92.8218 386.845L88.9553 384.992Z" fill="#30242A"/>
<path d="M71.5276 394.635L134.137 424.336C134.862 424.682 135.693 424.734 136.455 424.481C137.217 424.227 137.852 423.689 138.225 422.978C138.599 422.267 138.682 421.439 138.459 420.668C138.235 419.896 137.721 419.241 137.025 418.841L135.71 418.081L135.843 417.919L92.8076 397.603C93.4524 395.817 93.9046 393.967 94.1566 392.084C100.598 393.2 113.632 394.402 113.698 389.03C113.769 384.023 99.5336 386.032 94.3324 387.448C94.2202 385.524 93.8463 383.624 93.2209 381.8C78.8711 382.788 73.9881 387.823 71.5276 394.635Z" fill="#30242A"/>
<path d="M175.382 241.504C172.384 243 169.729 244.44 167.349 245.884L163.697 257.583L177.757 247.679L190.719 258.015L185.941 243.846L200.623 237.12L189.275 235.695C184.544 237.383 179.906 239.322 175.382 241.504Z" fill="#FFB7D5"/>
<path d="M216.806 235.415L215.856 241.604L222.05 239.224L216.806 235.415Z" fill="#FFB7D5"/>
<path d="M181.082 266.375L172.033 278.284L159.17 272.094L166.789 284.953L154.881 294.956L170.123 293.051L175.367 310.679L180.607 293.051L197.279 288.287L181.082 281.618V266.375Z" fill="#FFB7D5"/>
<path d="M130.209 357.3L131.321 354.127L146.521 353.319L134.171 344.912L139.671 331.74L127.231 340.033L124.856 337.469C122.956 343.724 121.274 349.296 119.631 354.193H119.707C119.887 353.656 120.068 353.115 120.248 352.564L130.209 357.3Z" fill="#FFB7D5"/>
<path d="M130.209 357.3L120.234 352.583C120.054 353.134 119.873 353.676 119.693 354.212C113.665 372.167 108.174 381.145 95.116 381.696C94.4748 381.696 93.8573 381.757 93.2493 381.8C93.8747 383.624 94.2486 385.524 94.3608 387.448C99.5858 386.023 113.798 384.023 113.727 389.03C113.651 394.402 100.626 393.2 94.185 392.084C93.9285 393.967 93.4714 395.817 92.8218 397.603L135.857 417.919C141.709 410.794 152.838 395.851 163.944 373.226L130.209 357.3Z" fill="#EAA58B"/>
<path d="M168.219 321.157L166.794 334.02L153.456 333.545L164.889 342.123L160.614 357.366L172.057 347.358L182.34 354.217C182.625 353.308 182.887 352.388 183.124 351.457L179.182 341.639L185.29 334.946C185.39 333.702 185.485 332.476 185.575 331.284L174.907 333.065L168.219 321.157Z" fill="#FFB7D5"/>
<path d="M138.507 294.419C137.306 298.134 136.014 302.166 134.589 306.551L147.262 307.325L138.507 294.419Z" fill="#FFB7D5"/>
<path d="M183.257 410.462C183.457 407.612 184.079 390.464 188.458 390.773C194.158 391.172 187.532 410.761 187.532 410.761L183.257 410.462Z" fill="#30242A"/>
<path d="M288.75 223.725C288.75 223.725 241.112 232.56 214.911 243.513C188.458 254.576 188.715 274.222 193.474 327.588C197.749 375.364 205.387 398.563 189.674 405.707C175.263 412.262 170.256 420.48 170.94 427.994H241.882C242.281 427.994 242.677 427.915 243.047 427.762C243.416 427.609 243.752 427.385 244.034 427.102C244.317 426.82 244.541 426.484 244.694 426.114C244.848 425.745 244.926 425.349 244.926 424.949C244.926 424.142 244.605 423.367 244.034 422.796C243.463 422.225 242.689 421.904 241.882 421.904H240.685C242.922 414.585 246.166 400.297 246.613 376.651H255.41C255.41 376.651 259.932 355.751 254.935 337.112C249.71 317.585 244.931 314.25 242.076 300.912H284.765C317.364 300.912 341.764 270.759 334.673 238.944C332.459 229.002 329.248 223.744 329.248 223.744L288.75 223.725Z" fill="#FF7235"/>
<path d="M259.214 251.608L250.47 262.608L236.851 257.93L244.922 271.14L234.443 285.432L248.256 279.713L255.956 293.906L256.83 278.283L270.168 275.429L258.739 268.28L259.214 251.608Z" fill="#FFB7D5"/>
<path d="M240.186 336.528L248.261 349.738L237.782 364.031L251.595 358.331L256.716 367.769C257.466 360.435 257.837 349.586 255.443 339.169L253.809 341.226L240.186 336.528Z" fill="#FFB7D5"/>
<path d="M204.57 376.632L203.958 369.27L219.424 363.304L204.784 360.268L206.399 344.199L196.899 356.63L196.614 356.511C197.526 364.182 198.324 370.885 198.771 376.684V376.632H204.57Z" fill="#FFB7D5"/>
<path d="M241.882 421.886H240.685C242.922 414.566 246.166 400.278 246.613 376.632H198.756V376.675C198.794 377.15 198.827 377.625 198.861 378.1C198.861 378.143 198.861 378.19 198.861 378.233C199.853 393.077 198.234 401.76 189.655 405.66C175.244 412.215 170.237 420.432 170.921 427.946H241.882C242.689 427.946 243.463 427.626 244.034 427.055C244.605 426.484 244.926 425.709 244.926 424.902C244.926 424.094 244.605 423.32 244.034 422.749C243.463 422.178 242.689 421.857 241.882 421.857V421.886Z" fill="#EAA58B"/>
<path d="M305.399 224.955L283.515 226.893L285.795 235.69L271.797 243.157L289.234 245.489L295.134 258.557L301.2 245.024L318.936 242.221L303.532 234.289L305.399 224.955Z" fill="#FFB7D5"/>
<path d="M201.098 286.857L206.323 270.185L221.566 272.56L209.657 262.081L218.207 252.078L202.49 257.778L199.977 253.47C195.935 258.048 193.493 263.734 192.187 271.044L194.866 271.13L201.098 286.857Z" fill="#FFB7D5"/>
<path d="M241.882 234.555C238.666 235.448 235.464 236.384 232.339 237.348L244.931 245.898L241.882 234.555Z" fill="#FFB7D5"/>
<path d="M221.105 311.628L214.436 297.815L211.102 313.058L198.718 312.108L210.147 322.112L203.003 338.784L215.405 327.223L225.684 339.074L222.535 321.157L233.013 307.344L221.105 311.628Z" fill="#FFB7D5"/>
<path d="M192.828 416.314C199.127 414.575 211.42 410.101 209.197 405.213C207.126 400.653 195.108 408.538 191.009 412.048C189.974 410.15 188.653 408.423 187.09 406.928C174.655 413.26 170.29 420.926 170.94 427.975H241.882C242.689 427.975 243.464 427.654 244.035 427.083C244.606 426.512 244.926 425.738 244.926 424.93C244.926 424.123 244.606 423.348 244.035 422.777C243.464 422.206 242.689 421.886 241.882 421.886H193.954C193.776 419.994 193.399 418.126 192.828 416.314Z" fill="#30242A"/>
<path d="M241.881 301.962L229.617 301.791" stroke="#A15842" stroke-width="4" stroke-miterlimit="10" stroke-linecap="round"/>
<path d="M251.002 232.474C238.295 235.714 224.715 239.69 214.427 243.984C192.482 253.175 188.924 268.261 191.057 303.639" stroke="#A15842" stroke-width="4" stroke-miterlimit="10" stroke-linecap="round"/>
<path d="M412.255 229.696H400.589V427.975H412.255V229.696Z" fill="#FFBE21"/>
<path d="M412.255 232.422H400.589" stroke="#A15842" stroke-width="4" stroke-miterlimit="10"/>
<path d="M243.017 80.598C236.367 79.648 221.134 86.7968 220.63 100.928C220.127 115.059 232.743 119.6 234.761 120.612L264.036 116.066L266.054 83.7663L243.017 80.598Z" fill="#A15842"/>
<path d="M294.735 45.505C307.301 45.505 317.487 35.3184 317.487 22.7525C317.487 10.1866 307.301 0 294.735 0C282.169 0 271.982 10.1866 271.982 22.7525C271.982 35.3184 282.169 45.505 294.735 45.505Z" fill="#A15842"/>
<path d="M279.977 38.399C281.364 39.0402 269.683 11.324 263.722 15.6465C258.112 19.7267 272.932 35.15 279.977 38.399Z" fill="#30242A"/>
<path d="M280.623 40.0947C281.896 41.6147 311.697 31.1885 307.574 25.175C303.631 19.3895 279.35 38.57 280.623 40.0947Z" fill="#30242A"/>
<path d="M320.185 116.323C320.185 116.323 340.192 99.6502 327.31 81.073C319.112 69.2312 296.82 73.948 296.82 73.948C297.362 67.4452 299.129 48.7112 285.04 38.418C270.952 28.1247 253.077 33.5445 246.565 41.667C240.053 49.7895 241.692 64.9657 239.526 75.8005C237.36 86.6352 238.804 94.0025 245.482 97.47C251.557 100.624 258.706 98.7192 258.706 98.7192L257.946 110.152C257.946 110.152 244.171 110.67 235.73 113.724C215.391 121.087 179.657 171.579 179.657 171.579C157.27 170.629 136.308 169.679 136.308 169.679L147.266 202.074C147.266 202.074 174.892 211.123 194.899 205.874C215.196 200.559 234.438 172.054 234.438 172.054L241.088 191.107L229.655 223.022H329.215L312.543 193.486C315.426 167.295 320.185 116.323 320.185 116.323Z" fill="#EAA58B"/>
<path d="M288.194 108.965L262.069 156.337L251.382 110.627C246.684 111.102 240.423 112.024 235.778 113.705C215.391 121.087 179.657 171.579 179.657 171.579C157.27 170.629 136.308 169.679 136.308 169.679L147.266 202.074C147.266 202.074 174.892 211.123 194.899 205.874C215.196 200.559 234.438 172.054 234.438 172.054L241.088 191.107L229.655 223.022H329.215L312.543 193.491C315.393 167.29 320.143 116.318 320.143 116.318C315.732 113.633 310.902 111.706 305.855 110.618C300.169 109.335 293.918 110.1 288.194 108.965Z" fill="#4756DF"/>
<path d="M152.9 219.692H235.398L216.64 160.45C216.089 158.704 214.995 157.18 213.518 156.097C212.042 155.015 210.258 154.432 208.427 154.432H138.707C137.352 154.431 136.016 154.75 134.808 155.362C133.6 155.975 132.553 156.864 131.753 157.957C130.952 159.05 130.421 160.317 130.203 161.654C129.984 162.991 130.084 164.36 130.494 165.652L145.998 214.643C146.463 216.109 147.383 217.388 148.624 218.296C149.865 219.204 151.362 219.693 152.9 219.692Z" fill="#30242A"/>
<path d="M165.193 181.231C167.382 178.239 177.315 186.143 178.046 186.794C178.426 186.143 183.599 178.244 187.39 181.231C190.681 183.825 183.447 195.41 181.523 198.365C181.443 198.454 181.344 198.526 181.234 198.575C181.124 198.624 181.005 198.649 180.884 198.649C180.764 198.649 180.645 198.624 180.535 198.575C180.425 198.526 180.326 198.454 180.246 198.365C176.735 195.41 163.293 183.825 165.193 181.231Z" fill="#A15842"/>
<path d="M177.228 183.235C178.057 182.977 178.088 180.711 177.298 178.173C176.508 175.636 175.195 173.789 174.366 174.047C173.537 174.305 173.506 176.571 174.296 179.108C175.086 181.646 176.399 183.493 177.228 183.235Z" fill="#A15842"/>
<path d="M283.302 213.023C283.54 213.79 283.596 214.601 283.464 215.393C283.331 216.185 283.015 216.934 282.54 217.581C282.064 218.228 281.444 218.755 280.728 219.118C280.012 219.482 279.221 219.672 278.419 219.673H152.9C151.362 219.674 149.865 219.185 148.624 218.277C147.383 217.369 146.463 216.09 145.998 214.624L145.485 213.004L283.302 213.023Z" fill="#30242A"/>
<path d="M432.357 219.692H64.6067V231.601H432.357V219.692Z" fill="#FFBE21"/>
<path d="M358.964 284.948L366.602 255.075H322.047C312.121 255.075 302.478 258.38 294.637 264.467C286.797 270.555 281.206 279.079 278.746 288.695L273.569 308.93H328.075C335.156 308.93 342.035 306.573 347.628 302.23C353.221 297.888 357.209 291.807 358.964 284.948Z" fill="#FFB7D5"/>
<path d="M274.623 301.098L272.861 308.546" stroke="#A15842" stroke-width="4" stroke-linecap="round" stroke-linejoin="round"/>
<path d="M132.337 171.394C126.794 174.164 124.025 178.781 124.025 182.015C124.025 186.737 128.832 187.625 128.832 187.625C128.832 187.625 125.245 193.263 131.482 195.909C131.482 195.909 131.482 201.713 137.291 201.713C137.291 201.713 136.522 206.24 142.583 206.668C148.644 207.095 154.881 203.932 155.408 201.885C156.011 199.467 154.382 197.443 149.983 196.802C149.983 196.802 155.921 194.028 154.98 190.527C154.04 187.027 150.026 187.107 150.026 187.107C150.026 187.107 153.869 184.804 151.817 181.407C149.765 178.011 145.841 179.189 145.841 179.189C145.841 179.189 146.867 176.814 145.072 175.004C142.934 172.867 133.743 175.565 133.743 175.565L132.337 171.394Z" fill="#EAA58A"/>
<path d="M137.334 201.937C142.336 200.738 147.189 198.985 151.802 196.712" stroke="#A15842" stroke-width="4" stroke-miterlimit="10" stroke-linecap="round"/>
<path d="M131.468 195.881C138.403 193.979 145.024 191.078 151.123 187.269" stroke="#A15842" stroke-width="4" stroke-miterlimit="10" stroke-linecap="round"/>
<path d="M128.356 188.299C134.783 186.398 140.855 183.457 146.33 179.593" stroke="#A15842" stroke-width="4" stroke-miterlimit="10" stroke-linecap="round"/>
<path d="M327.334 81.073C319.135 69.2312 296.844 73.948 296.844 73.948C297.385 67.4452 299.152 48.7112 285.064 38.418C270.975 28.1247 253.101 33.5445 246.589 41.667C243.938 44.992 242.641 49.4665 241.886 54.3495C246.209 55.0762 252.55 53.5895 252.55 53.5895C261.219 63.3412 268.985 64.8897 268.985 64.8897C275.051 58.824 285.691 59.0235 287.42 68.2147C289.215 77.7575 273.972 82.0467 273.972 82.0467C273.972 82.0467 272.547 99.1942 280.147 105.388C282.48 107.237 285.238 108.473 288.17 108.984C293.87 110.119 300.145 109.354 305.873 110.627C310.921 111.716 315.751 113.642 320.161 116.327C321.902 114.794 323.492 113.099 324.911 111.264C329.908 104.927 335.884 93.423 327.334 81.073Z" fill="#A15842"/>
<path d="M261.594 50.1125C258.744 52.4875 255.419 53.9125 251.591 54.8625" stroke="#EAA58B" stroke-width="4" stroke-miterlimit="10" stroke-linecap="round"/>
<path d="M258.549 99.788C260.761 99.0501 262.895 98.0955 264.919 96.938" stroke="#A15842" stroke-width="4" stroke-miterlimit="10" stroke-linecap="round"/>
<path d="M274.557 72.466L278.889 69.7585" stroke="#A15842" stroke-width="4" stroke-miterlimit="10" stroke-linecap="round"/>
<path d="M249.7 85.1817C250.598 85.7375 253.975 86.1698 255.315 83.5905" stroke="#A15842" stroke-width="4" stroke-miterlimit="10" stroke-linecap="round"/>
<path d="M258.526 72.9933C259.423 72.9933 260.15 72.266 260.15 71.3688C260.15 70.4716 259.423 69.7443 258.526 69.7443C257.628 69.7443 256.901 70.4716 256.901 71.3688C256.901 72.266 257.628 72.9933 258.526 72.9933Z" fill="#30242A"/>
<path d="M245.059 70.8415C245.957 70.8415 246.684 70.1142 246.684 69.217C246.684 68.3198 245.957 67.5925 245.059 67.5925C244.162 67.5925 243.435 68.3198 243.435 69.217C243.435 70.1142 244.162 70.8415 245.059 70.8415Z" fill="#30242A"/>
<path d="M249.634 75.4918C249.311 76.513 249.03 77.6245 249.216 77.995C249.47 78.4645 249.857 78.8492 250.327 79.1018" stroke="#A15842" stroke-width="4" stroke-miterlimit="10" stroke-linecap="round"/>
<path d="M276.595 88.3832C279.737 88.3832 282.285 85.8355 282.285 82.6927C282.285 79.55 279.737 77.0023 276.595 77.0023C273.452 77.0023 270.904 79.55 270.904 82.6927C270.904 85.8355 273.452 88.3832 276.595 88.3832Z" fill="#F5EBDD"/>
<path d="M249.219 70.1303C250.204 65.0703 247.309 60.2499 242.754 59.3636C238.199 58.4774 233.708 61.8608 232.723 66.9208C231.739 71.9808 234.633 76.8012 239.189 77.6875C243.744 78.5738 248.235 75.1903 249.219 70.1303Z" stroke="#30242A" stroke-width="4" stroke-miterlimit="10" stroke-linecap="round"/>
<path d="M269.858 72.661C270.843 67.601 267.948 62.7805 263.393 61.8943C258.837 61.008 254.347 64.3915 253.362 69.4515C252.378 74.5115 255.272 79.3319 259.828 80.2182C264.383 81.1044 268.874 77.721 269.858 72.661Z" stroke="#30242A" stroke-width="4" stroke-miterlimit="10" stroke-linecap="round"/>
<path d="M249.61 69.3643L252.892 69.7158" stroke="#30242A" stroke-width="4" stroke-miterlimit="10" stroke-linecap="round"/>
<path d="M297.932 74.575L296.986 80.655" stroke="#30242A" stroke-width="4" stroke-miterlimit="10" stroke-linecap="round"/>
<path d="M229.204 159.671L233.802 173.052" stroke="#30242A" stroke-width="4" stroke-linecap="round" stroke-linejoin="round"/>
<path d="M253.495 190.157H241.406" stroke="#30242A" stroke-width="4" stroke-linecap="round" stroke-linejoin="round"/>
<path d="M263.024 155.862L266.833 174.439V191.586" stroke="#30242A" stroke-width="4" stroke-linecap="round" stroke-linejoin="round"/>
<path d="M237.687 113.292L244.922 129.661L236.348 128.711L266.833 174.439" stroke="#30242A" stroke-width="4" stroke-linecap="round" stroke-linejoin="round"/>
<path d="M308.173 111.345L295.894 128.711L307.327 127.756L265.404 164.91" stroke="#30242A" stroke-width="4" stroke-linecap="round" stroke-linejoin="round"/>
<path d="M314.557 169.575L305.422 156.817" stroke="#30242A" stroke-width="4" stroke-linecap="round" stroke-linejoin="round"/>
<path d="M325.125 216.6C320.152 214.942 311.227 211.741 305.845 208.525" stroke="#30242A" stroke-width="4" stroke-linecap="round" stroke-linejoin="round"/>
<path d="M187.945 98.4057C193.105 98.4057 197.289 94.2226 197.289 89.0625C197.289 83.9024 193.105 79.7192 187.945 79.7192C182.785 79.7192 178.602 83.9024 178.602 89.0625C178.602 94.2226 182.785 98.4057 187.945 98.4057Z" fill="#FFB7D5"/>
<path d="M160.021 51.8797L154.581 45.3204C153.744 44.3107 152.247 44.171 151.237 45.0084L151.12 45.1054C150.11 45.9427 149.971 47.44 150.808 48.4496L156.248 55.0089C157.085 56.0186 158.583 56.1582 159.592 55.3209L159.709 55.2239C160.719 54.3866 160.858 52.8893 160.021 51.8797Z" fill="#4756DF"/>
<path d="M169.805 59.85L164.333 53.2475L65.9749 134.805C65.1172 135.517 64.5773 136.54 64.4739 137.65C64.3706 138.76 64.7123 139.866 65.4239 140.723L65.5332 140.856C65.8852 141.281 66.3175 141.632 66.8053 141.89C67.293 142.147 67.8267 142.306 68.3759 142.357C68.9251 142.408 69.4789 142.351 70.0059 142.188C70.5328 142.025 71.0225 141.76 71.4469 141.408L102.198 115.9V205.404H110.782V108.775L169.805 59.85Z" fill="#3EC1F3"/>
<path d="M153.954 61.75L156.695 65.075C157.65 66.2286 158.375 67.5538 158.833 68.9795" stroke="#4756DF" stroke-width="4" stroke-miterlimit="10"/>
<path d="M106.487 117.881C112.671 117.881 117.683 112.868 117.683 106.685C117.683 100.502 112.671 95.4893 106.487 95.4893C100.304 95.4893 95.2917 100.502 95.2917 106.685C95.2917 112.868 100.304 117.881 106.487 117.881Z" fill="#4756DF"/>
<path d="M106.488 110.989C108.864 110.989 110.791 109.062 110.791 106.685C110.791 104.308 108.864 102.382 106.488 102.382C104.111 102.382 102.184 104.308 102.184 106.685C102.184 109.062 104.111 110.989 106.488 110.989Z" fill="#3EC1F3"/>
<path d="M195.617 83.7567L181.295 95.5937" stroke="#A15842" stroke-width="4" stroke-miterlimit="10"/>
<path d="M177.063 58.653C174.052 58.2992 171.292 56.7988 169.359 54.4635L165.559 49.8703C164.216 48.2533 162.286 47.2355 160.193 47.0405C158.1 46.8454 156.015 47.4891 154.396 48.83C153.595 49.4943 152.933 50.3098 152.447 51.2301C151.961 52.1503 151.661 53.1573 151.565 54.1934C151.468 55.2295 151.577 56.2746 151.884 57.2688C152.191 58.263 152.691 59.1869 153.356 59.9878L157.156 64.5953C159.081 66.9239 160.038 69.903 159.83 72.9173L158.88 86.8063C158.409 93.602 160.134 100.369 163.801 106.11L165.017 108.01L210.584 70.2145L208.95 68.6803C203.99 64.0141 197.663 61.0651 190.9 60.268L177.063 58.653Z" fill="#3EC1F3"/>
<path d="M110.781 205.404H102.198L89.511 208.862C87.1355 209.51 85.039 210.922 83.5446 212.879C82.0502 214.836 81.2409 217.23 81.2412 219.692H131.734C131.734 217.229 130.924 214.835 129.428 212.878C127.933 210.92 125.836 209.51 123.459 208.862L110.781 205.404Z" fill="#3EC1F3"/>
<path d="M201.939 63.4932L160.239 97.9592" stroke="#4756DF" stroke-width="4" stroke-miterlimit="10" stroke-linecap="round"/>
<path d="M101.989 204.421H110.782" stroke="#4756DF" stroke-width="4" stroke-miterlimit="10" stroke-linecap="round"/>
<path d="M82.9084 213.755H129.781" stroke="#4756DF" stroke-width="4" stroke-miterlimit="10" stroke-linecap="round"/>
<path d="M353.06 342.233C354.01 334.158 353.535 316.032 343.057 302.219C332.578 288.406 346.857 294.144 351.132 297.944C357.972 304.024 363.995 309.852 369.234 329.384L353.06 342.233Z" fill="#30242A"/>
<path d="M479.586 427.975H535.508V426.146C535.506 423.568 534.481 421.096 532.658 419.274C530.835 417.452 528.362 416.428 525.784 416.428H479.296L479.586 427.975Z" fill="#A15842"/>
<path d="M343.17 374.585L354.965 427.975H376.881V424.65C376.881 422.506 376.031 420.45 374.518 418.932C373.004 417.414 370.95 416.558 368.806 416.551C368.806 416.551 379.76 408.339 386.429 400.24C386.429 400.24 397.862 414.172 414.059 411.787L415.233 417.487C415.843 420.445 417.454 423.103 419.794 425.014C422.134 426.924 425.061 427.97 428.081 427.975H481.201C504.761 427.975 516.351 424.379 517.016 410.965C517.036 410.454 516.953 409.943 516.771 409.464C516.59 408.986 516.313 408.549 515.958 408.179C515.603 407.81 515.177 407.517 514.706 407.316C514.235 407.116 513.728 407.013 513.216 407.013H498.386C497.775 407.014 497.171 406.877 496.619 406.613C496.068 406.349 495.582 405.965 495.199 405.488L488.886 397.656C487.015 395.338 484.518 393.606 481.691 392.665C478.865 391.725 475.827 391.615 472.94 392.35L460.244 395.594C460.244 395.594 437.748 363.266 417.37 340.813C397.895 319.376 361.263 317.063 346.833 344.983C342.193 354.12 340.898 364.593 343.17 374.585Z" fill="#A15842"/>
<path d="M475.962 427.975V426.146C475.962 424.87 475.71 423.605 475.221 422.426C474.733 421.247 474.016 420.175 473.113 419.273C472.211 418.37 471.139 417.654 469.959 417.166C468.779 416.678 467.515 416.427 466.238 416.428H459.764" stroke="#30242A" stroke-width="4" stroke-miterlimit="10"/>
<path d="M387.312 400.62C390.638 396.663 401.985 382.095 401.173 367.845C400.304 352.597 391.169 344.503 391.169 344.503" stroke="#30242A" stroke-width="4" stroke-miterlimit="10" stroke-linecap="round"/>
<path d="M411.176 391.656C411.176 391.656 411.784 402.928 413.005 411.345" stroke="#30242A" stroke-width="4" stroke-miterlimit="10" stroke-linecap="round"/>
<path d="M365.448 423.097V427.5" stroke="#30242A" stroke-width="4" stroke-miterlimit="10" stroke-linecap="round"/>
<path d="M370.687 423.097V427.5" stroke="#30242A" stroke-width="4" stroke-miterlimit="10" stroke-linecap="round"/>
<path d="M465.483 423.097V427.5" stroke="#30242A" stroke-width="4" stroke-miterlimit="10" stroke-linecap="round"/>
<path d="M470.722 423.097V427.5" stroke="#30242A" stroke-width="4" stroke-miterlimit="10" stroke-linecap="round"/>
<path d="M484.773 410.234C485.956 410.234 486.915 409.275 486.915 408.091C486.915 406.908 485.956 405.949 484.773 405.949C483.59 405.949 482.631 406.908 482.631 408.091C482.631 409.275 483.59 410.234 484.773 410.234Z" fill="#30242A"/>
<path d="M473.083 392.307V392.25L460.225 395.575L472.922 392.331L473.083 392.307Z" fill="#30242A"/>
<path d="M441.439 416.642C437.715 418.542 432.452 422.261 432.889 427.894H453.57L457.916 421.04C458.627 419.919 459.609 418.996 460.771 418.355C461.934 417.715 463.239 417.379 464.566 417.378H465.949L473.036 392.45L472.931 392.34L460.234 395.585L448.079 411.155C446.29 413.444 444.024 415.316 441.439 416.642Z" fill="#30242A"/>
<path d="M411.233 352.45C411.233 352.45 405.481 372.362 424.058 379.881C433.478 383.681 441.301 380.798 446.73 377.031C438.527 366.106 427.673 352.198 417.366 340.836C414.781 337.993 411.877 335.457 408.711 333.279C405.899 337.107 402.821 346.579 411.233 352.45Z" fill="#EAA58B"/>
<path d="M363.781 366.89C368.123 366.89 371.642 363.37 371.642 359.029C371.642 354.687 368.123 351.167 363.781 351.167C359.439 351.167 355.92 354.687 355.92 359.029C355.92 363.37 359.439 366.89 363.781 366.89Z" fill="#EAA58B"/>
<path d="M513.235 407.013H510.385C510.228 407.808 510.249 408.628 510.446 409.413C510.643 410.199 511.011 410.931 511.525 411.558C512.038 412.184 512.684 412.69 513.416 413.037C514.147 413.385 514.947 413.566 515.757 413.568C516.092 413.568 516.426 413.536 516.755 413.473C516.9 412.644 516.993 411.806 517.035 410.965C517.055 410.454 516.972 409.943 516.79 409.464C516.609 408.986 516.332 408.549 515.977 408.179C515.622 407.81 515.196 407.517 514.725 407.316C514.254 407.116 513.747 407.013 513.235 407.013Z" fill="#30242A"/>
<path d="M524.549 423.097V427.391" stroke="#30242A" stroke-width="4" stroke-miterlimit="10" stroke-linecap="round"/>
<path d="M529.789 423.097V427.391" stroke="#30242A" stroke-width="4" stroke-miterlimit="10" stroke-linecap="round"/>
<path d="M495.802 427.405C507.449 426.232 514.394 423.078 516.916 416.366" stroke="#30242A" stroke-width="4" stroke-linecap="round" stroke-linejoin="round"/>
<path d="M305.897 177.493C300.036 176.968 294.142 176.903 288.27 177.298C279.872 177.987 268.581 180.186 264.045 182.381C259.509 184.575 242.138 192.323 246.817 194.921C251.092 197.296 260.06 193.724 260.06 193.724C260.06 193.724 251.111 201.951 249.572 205.395C248.033 208.838 253.12 210.772 253.12 210.772C254.46 216.652 260.454 214.125 260.454 214.125C264.23 222.157 284.632 204.753 284.632 204.753C289.485 205.258 294.387 205.051 299.181 204.141C299.181 204.141 301.765 205.589 305.911 207.603L305.897 177.493Z" fill="#EAA58A"/>
<path d="M356.865 217.787C394.974 199.685 339.732 132.05 320.185 116.323L309.232 160.626L323.045 179.678C316.993 178.633 311.208 177.916 305.897 177.493V207.603C317.991 213.484 343.403 224.2 356.865 217.787Z" fill="#4756DF"/>
<path d="M258.236 194.223C261.618 191.425 267.232 186.903 271.422 184.177" stroke="#A15842" stroke-width="4" stroke-miterlimit="10" stroke-linecap="round"/>
<path d="M276.039 190.86C266.306 197.163 257.438 205.585 253.049 209.993" stroke="#A15842" stroke-width="4" stroke-miterlimit="10" stroke-linecap="round"/>
<path d="M280.356 197.99C273.706 202.554 265.988 209.475 260.948 214.225" stroke="#A15842" stroke-width="4" stroke-miterlimit="10" stroke-linecap="round"/>
<path d="M394.689 195.429C395.409 195.431 396.1 195.717 396.609 196.226C397.118 196.736 397.405 197.426 397.406 198.146V198.55C397.405 199.27 397.118 199.961 396.609 200.47C396.1 200.979 395.409 201.266 394.689 201.267H380.691V195.429H394.689ZM394.689 191.629H377.404C377.336 191.629 377.269 191.643 377.206 191.669C377.144 191.695 377.087 191.733 377.039 191.781C376.992 191.829 376.954 191.886 376.929 191.949C376.903 192.012 376.89 192.079 376.891 192.147V204.568C376.891 204.704 376.945 204.835 377.041 204.931C377.137 205.027 377.268 205.081 377.404 205.081H394.689C395.546 205.081 396.395 204.912 397.186 204.584C397.978 204.255 398.697 203.774 399.302 203.167C399.908 202.561 400.387 201.841 400.714 201.048C401.041 200.256 401.208 199.407 401.206 198.55V198.132C401.206 196.404 400.519 194.746 399.297 193.524C398.075 192.302 396.418 191.615 394.689 191.615V191.629Z" fill="#3EC1F3"/>
<path d="M373.789 189.582C359.634 189.582 353.093 178.301 353.093 178.301L362.593 219.692H384.956L394.456 178.301C392.25 181.779 389.196 184.639 385.581 186.612C381.965 188.586 377.908 189.608 373.789 189.582Z" fill="#3EC1F3"/>
<path d="M373.789 189.582C377.912 189.612 381.976 188.593 385.597 186.619C389.217 184.646 392.276 181.783 394.485 178.301H353.093C353.093 178.301 359.634 189.582 373.789 189.582Z" fill="#30242A"/>
</svg>
